<?xml version="1.0" encoding="utf-8"?>
<!-- Generator: Adobe Illustrator 16.0.0, SVG Export Plug-In . SVG Version: 6.00 Build 0)  -->
<!DOCTYPE svg PUBLIC "-//W3C//DTD SVG 1.1//EN" "http://www.w3.org/Graphics/SVG/1.1/DTD/svg11.dtd">
<svg version="1.1" id="Layer_1" xmlns="http://www.w3.org/2000/svg" xmlns:xlink="http://www.w3.org/1999/xlink" x="0px" y="0px"
	 width="48px" height="48px" viewBox="0 0 48 48" enable-background="new 0 0 48 48" xml:space="preserve">
<g>
	<g>
		<path d="M22.513,11.386c0.012,0.598-0.47,1.096-1.101,1.108c-0.63,0.019-1.15-0.454-1.162-1.056
			c-0.016-0.594,0.482-1.09,1.113-1.105C21.994,10.321,22.498,10.791,22.513,11.386z"/>
		<path d="M27.753,11.386c0.009,0.598-0.473,1.096-1.104,1.108c-0.627,0.019-1.15-0.454-1.162-1.056
			c-0.013-0.594,0.485-1.09,1.112-1.105C27.228,10.321,27.738,10.791,27.753,11.386z"/>
	</g>
	<path d="M25.135,25.918c0.013,0.601-0.482,1.095-1.104,1.107c-0.636,0.015-1.153-0.454-1.162-1.056
		c-0.019-0.599,0.479-1.087,1.107-1.1C24.605,24.851,25.122,25.323,25.135,25.918z"/>
	<path d="M25.135,31.783c0.013,0.596-0.482,1.092-1.104,1.106c-0.633,0.012-1.153-0.458-1.165-1.059
		c-0.016-0.596,0.482-1.09,1.113-1.104C24.605,30.71,25.122,31.183,25.135,31.783z"/>
	<path d="M25.135,37.643c0.013,0.595-0.482,1.091-1.106,1.105c-0.634,0.016-1.15-0.454-1.163-1.054
		c-0.016-0.601,0.482-1.091,1.113-1.106C24.603,36.571,25.119,37.038,25.135,37.643z"/>
	<path fill="none" stroke="#000000" stroke-width="2" stroke-linejoin="round" stroke-miterlimit="10" d="M28.641,18.962
		c2.124-1.401,3.521-3.733,3.521-6.378c0-4.289-3.658-7.769-8.165-7.769c-4.508,0-8.159,3.48-8.159,7.769
		c0,2.646,1.395,4.968,3.515,6.378C13.287,20.826,8.9,26.236,8.9,32.634C8.9,40.563,15.659,47,23.997,47
		c8.338,0,15.105-6.437,15.105-14.366C39.103,26.236,34.703,20.826,28.641,18.962z"/>
	
		<line fill="none" stroke="#000000" stroke-width="2" stroke-linecap="round" stroke-linejoin="round" stroke-miterlimit="10" x1="15.708" y1="4.815" x2="32.292" y2="4.815"/>
	
		<line fill="none" stroke="#000000" stroke-width="2" stroke-linecap="round" stroke-linejoin="round" stroke-miterlimit="10" x1="21.122" y1="1" x2="26.878" y2="1"/>
	<g>
		<path fill="none" stroke="#000000" stroke-width="2" stroke-linecap="round" stroke-linejoin="round" stroke-miterlimit="10" d="
			M15.708,20.105c0,0-8.795-3.88-11.411,4.008"/>
		<path fill="none" stroke="#000000" stroke-width="2" stroke-linecap="round" stroke-linejoin="round" stroke-miterlimit="10" d="
			M32.292,20.105c0,0,8.792-3.88,11.411,4.008"/>
	</g>
</g>
</svg>
